<?xml version="1.0" encoding="UTF-8"?>
<svg id="Layer_1" xmlns="http://www.w3.org/2000/svg" version="1.1" viewBox="0 0 827.7 283.5">
  <!-- Generator: Adobe Illustrator 29.5.1, SVG Export Plug-In . SVG Version: 2.1.0 Build 141)  -->
  <defs>
    <style>
      .st0 {
        fill: #211c51;
      }
    </style>
  </defs>
  <path class="st0" d="M767.3,96c0-11-8.9-19.8-19.8-19.8h-92.4c-11,0-19.8,8.9-19.8,19.8v114.8c0,5.8,4.9,10.4,10.7,9.9,79.8-6.8,104.2-89.8,109.2-110.2,0-.4.6-.3.6,0-1.4,14.9-5.7,58.4-41.5,93.8-1.6,1.6-1.1,4.3.9,5.3,17,8.2,32.9,10.8,41.9,11,5.1.1,10.2-2.1,10.2-7.4v-117.3Z"/>
  <path class="st0" d="M129.5,150.6c-.8-1.2-.6-2.8.4-3.9l37.6-36.6c1.4-1.3.4-3.7-1.5-3.7h-29.4c-1.6,0-3.2.7-4.3,1.8l-35.6,37c-.8.8-2.2.3-2.2-.9v-78.6c0-1.6-1.3-3-3-3h-25.5c-1.6,0-3,1.3-3,3v152c0,1.6,1.3,3,3,3h25.5c1.6,0,3-1.3,3-3v-33.7c0-1.7.7-3.4,1.9-4.6l8.3-8c1-1,2.6-.7,3.3.4l28.8,46.8c.8,1.3,2.1,2,3.6,2h31.6c1.7,0,2.8-1.9,1.8-3.4l-44.4-66.9ZM215.7,106.5h-25.5c-1.6,0-3,1.3-3,3v108.4c0,1.6,1.3,3,3,3h25.5c1.6,0,3-1.3,3-3v-108.4c0-1.6-1.3-3-3-3ZM314.3,107.6c0-4.8-6.9-4.3-6.9-4.3-4,0-7.8.6-11.5,1.8-3.7,1.2-7.2,2.8-10.4,5-3.2,2.1-6.1,4.7-8.6,7.7-1.4,1.7-2.8,3.5-4,5.4-.7,1.1-2.4.6-2.4-.7v-13.1c0-1.6-1.3-3-3-3h-23.9c-1.6,0-3,1.3-3,3v108.4c0,1.6,1.3,3,3,3h25.5c1.6,0,3-1.3,3-3v-48.6c0-5.2.5-10,1.5-14.4,1-4.4,2.8-8.3,5.2-11.6,2.4-3.3,5.6-5.9,9.6-7.9,4-1.9,8.8-2.9,14.6-2.9s3.9,0,6,.3c5.5.8,5.3-3.4,5.3-3.4v-21.9ZM203,60.1c-8.9,0-16.2,7.2-16.2,16.2s7.2,16.2,16.2,16.2,16.2-7.2,16.2-16.2-7.2-16.2-16.2-16.2ZM434.8,106.5h-23c-1.6,0-3,1.3-3,3v7.1c0,1.2-1.4,1.8-2.3,1-10-9.4-21.2-14.2-33.5-14.2s-28.2,5.7-38.5,17.1c-10.2,11.4-15.4,25.7-15.4,42.8s5.1,32,15.4,43.7c10.3,11.4,23.4,17.1,39.2,17.1s24.2-5.1,35.1-15.3c2.8-2.7,5.4-6,7.8-9.9,0,0,.1-.2.3-.1.2,0,.2.3.2.3-.5,2.5-2.2,8-7.4,14.1-.6.7-.9,1.5-.9,2.4v2.1c0,1.6,1.3,3,3,3h23c1.6,0,3-1.3,3-3v-108.4c0-1.6-1.3-3-3-3ZM397.2,186.9c-5.2,5.8-12.1,8.8-20.6,8.8s-14.5-3-19.8-9.1c-5.1-6-7.6-13.7-7.6-23.2s2.6-16.4,7.9-22.4c5.3-6,11.9-9,19.8-9s15.2,3,20.4,8.9c5.2,6.1,7.8,13.7,7.8,23s-2.6,17-7.8,23ZM569.4,106.5h-23c-1.6,0-3,1.3-3,3v7.1c0,1.2-1.4,1.8-2.3,1-10-9.4-21.2-14.2-33.5-14.2s-28.2,5.7-38.5,17.1c-10.2,11.4-15.4,25.7-15.4,42.8s5.1,32,15.4,43.7c10.3,11.4,23.4,17.1,39.2,17.1s24.2-5.1,35.1-15.3c2.8-2.7,5.4-6,7.8-9.9,0,0,.1-.2.3-.1.2,0,.2.3.2.3-.5,2.5-2.2,8-7.4,14.1-.6.7-.9,1.5-.9,2.4v2.1c0,1.6,1.3,3,3,3h23c1.6,0,3-1.3,3-3v-108.4c0-1.6-1.3-3-3-3ZM531.7,186.9c-5.2,5.8-12.1,8.8-20.6,8.8s-14.5-3-19.8-9.1c-5.1-6-7.6-13.7-7.6-23.2s2.6-16.4,7.9-22.4c5.3-6,11.9-9,19.8-9s15.2,3,20.4,8.9c5.2,6.1,7.8,13.7,7.8,23s-2.6,17-7.8,23Z"/>
</svg>