<?xml version="1.0" encoding="UTF-8"?>
<svg id="Layer_1" xmlns="http://www.w3.org/2000/svg" version="1.1" viewBox="0 0 283.5 283.5">
  <!-- Generator: Adobe Illustrator 29.5.1, SVG Export Plug-In . SVG Version: 2.1.0 Build 141)  -->
  <path d="M209.4,88c0-11.2-9.1-20.3-20.3-20.3h-94.8c-11.2,0-20.3,9.1-20.3,20.3v117.7c0,5.9,5.1,10.7,11,10.1,81.8-7,106.8-92.1,111.9-112.9,0-.4.7-.3.6,0-1.4,15.3-5.8,59.9-42.5,96.1-1.7,1.6-1.1,4.4,1,5.4,17.4,8.4,33.7,11.1,43,11.3,5.2.1,10.5-2.2,10.5-7.6v-120.3.2Z"/>
</svg>